<?xml version="1.0" encoding="UTF-8" standalone="no"?>
<!-- Created with Inkscape (http://www.inkscape.org/) -->

<svg
   version="1.1"
   id="svg1"
   width="50"
   height="40"
   viewBox="0 0 50.000002 40"
   sodipodi:docname="vy-text.svg"
   inkscape:version="1.3.1 (9b9bdc1480, 2023-11-25, custom)"
   xmlns:inkscape="http://www.inkscape.org/namespaces/inkscape"
   xmlns:sodipodi="http://sodipodi.sourceforge.net/DTD/sodipodi-0.dtd"
   xmlns="http://www.w3.org/2000/svg"
   xmlns:svg="http://www.w3.org/2000/svg">
  <defs
     id="defs1">
    <filter
       style="color-interpolation-filters:sRGB;"
       inkscape:label="Invert"
       id="filter2"
       x="0"
       y="0"
       width="1"
       height="1">
      <feColorMatrix
         values="-1 0 0 0 1 0 -1 0 0 1 0 0 -1 0 1 -0.21 -0.72 -0.07 2 0 "
         result="color2"
         id="feColorMatrix2" />
    </filter>
  </defs>
  <sodipodi:namedview
     id="namedview1"
     pagecolor="#ffffff"
     bordercolor="#000000"
     borderopacity="0.25"
     inkscape:showpageshadow="2"
     inkscape:pageopacity="0.0"
     inkscape:pagecheckerboard="0"
     inkscape:deskcolor="#d1d1d1"
     inkscape:zoom="16"
     inkscape:cx="29"
     inkscape:cy="24.625"
     inkscape:window-width="1974"
     inkscape:window-height="1088"
     inkscape:window-x="74"
     inkscape:window-y="27"
     inkscape:window-maximized="1"
     inkscape:current-layer="g1" />
  <g
     inkscape:groupmode="layer"
     inkscape:label="Image"
     id="g1"
     transform="translate(-96.178439,-41.763208)">
    <path
       style="fill:#000000;stroke-width:0.0873551;filter:url(#filter2)"
       d="m 104.51235,81.772435 c -0.13409,-0.01633 -0.57298,-0.06845 -0.97528,-0.115848 -3.891139,-0.458389 -6.222617,-2.281097 -7.095078,-5.546808 -0.190965,-0.71482 -0.310744,-26.413278 -0.129464,-27.776144 0.485134,-3.647101 2.712943,-5.668361 7.051332,-6.397592 1.24299,-0.20893 34.40876,-0.20893 35.65174,0 4.30191,0.723096 6.48479,2.672126 7.03375,6.280229 0.14996,0.985583 0.14996,26.164619 0,27.150201 -0.54426,3.577195 -2.67009,5.505775 -6.91714,6.275304 -0.67628,0.12254 -33.66374,0.247031 -34.61986,0.130658 z m 9.05751,-11.706901 c 0.49023,-1.129626 2.51087,-5.786043 4.49031,-10.347592 l 3.59897,-8.293721 -2.93153,-0.02072 c -1.61235,-0.0114 -2.94612,-0.009 -2.96394,0.0053 -0.0178,0.01429 -1.33781,3.503061 -2.93332,7.752819 -1.99771,5.321059 -2.92478,7.682449 -2.97757,7.584276 -0.0421,-0.07841 -1.34819,-3.554442 -2.90228,-7.724522 -1.5541,-4.170081 -2.84151,-7.594699 -2.86091,-7.610263 -0.0193,-0.01556 -1.34997,-0.01897 -2.95682,-0.0076 l -2.92153,0.02072 4.36676,10.093302 c 2.40172,5.551318 4.41537,10.207734 4.47476,10.347594 l 0.10795,0.254286 h 2.75888 2.75888 z m 22.12818,-1.755419 0.0253,-3.770169 4.13823,-6.4405 c 2.27603,-3.542274 4.16773,-6.502644 4.20379,-6.578601 0.0619,-0.13034 -0.0974,-0.136936 -2.8346,-0.117363 l -2.90016,0.02073 -2.64267,4.596756 c -1.45345,2.528216 -2.66633,4.596756 -2.69526,4.596756 -0.0289,0 -1.23716,-2.07668 -2.68495,-4.614844 l -2.63235,-4.614843 -2.90147,-0.0014 c -1.59582,-8.04e-4 -2.90149,0.01537 -2.90149,0.03594 0,0.02058 1.88719,2.974843 4.19373,6.565034 l 4.19374,6.527621 v 3.749954 c 0,2.06248 0.03,3.773985 0.0665,3.803352 0.0367,0.02934 1.25449,0.04404 2.70643,0.0326 l 2.63985,-0.0208 z"
       id="path1" />
  </g>
</svg>
